<?xml version="1.0" standalone="no"?>
<!DOCTYPE svg PUBLIC "-//W3C//DTD SVG 20010904//EN"
 "http://www.w3.org/TR/2001/REC-SVG-20010904/DTD/svg10.dtd">
<svg version="1.0" xmlns="http://www.w3.org/2000/svg"
 width="600.000000pt" height="626.000000pt" viewBox="0 0 600.000000 626.000000"
 preserveAspectRatio="xMidYMid meet">
<metadata>
Created by potrace 1.16, written by Peter Selinger 2001-2019
</metadata>
<g transform="translate(0.000000,626.000000) scale(0.100000,-0.100000)"
fill="#000000" stroke="none">
<path d="M0 4585 l0 -1675 25 -6 c14 -3 42 -15 62 -25 21 -10 45 -19 56 -19
10 0 29 -12 42 -26 24 -26 49 -35 108 -38 17 0 27 -7 27 -16 0 -16 74 -60 102
-60 9 0 20 5 23 10 10 17 35 11 35 -7 1 -28 36 -64 66 -67 15 -2 31 -11 36
-20 7 -13 17 -16 34 -12 20 5 24 3 24 -16 0 -13 4 -29 9 -37 8 -12 12 -13 25
-1 20 16 23 13 35 -36 l9 -39 1 38 c1 40 11 46 36 21 9 -9 31 -20 48 -24 18
-4 31 -12 30 -18 -2 -7 2 -12 8 -12 13 0 30 -18 50 -55 10 -17 26 -34 38 -40
12 -5 21 -13 21 -17 0 -4 6 -5 14 -2 7 3 16 -2 20 -11 4 -12 13 -15 29 -12 17
5 25 -1 38 -25 15 -32 20 -35 74 -59 l30 -13 -35 -7 c-27 -6 -21 -7 28 -6 l64
2 -4 -92 c-3 -86 -1 -94 19 -108 22 -15 22 -18 16 -185 -6 -159 -5 -170 12
-170 17 0 18 10 13 158 -3 86 -2 166 3 177 4 12 8 -21 8 -85 1 -58 5 -120 10
-138 6 -20 6 -32 0 -32 -5 0 -9 -33 -9 -74 0 -62 3 -77 19 -88 16 -12 19 -30
23 -144 3 -106 7 -135 21 -149 20 -19 21 -26 6 -22 -8 1 -10 -26 -9 -88 2 -49
3 -105 2 -122 -1 -32 0 -33 43 -33 24 0 47 -5 50 -10 4 -6 6 -71 6 -144 -1
-89 3 -136 10 -138 6 -2 14 -28 19 -58 l9 -55 -2 53 -2 52 278 0 277 0 0 -55
0 -55 -281 0 c-177 0 -278 -4 -274 -10 3 -5 25 -7 48 -5 41 4 41 4 10 -6 -18
-5 -33 -12 -33 -14 0 -2 15 -2 33 0 17 3 26 2 19 -1 -10 -5 -8 -10 7 -21 12
-8 21 -20 20 -26 0 -9 -2 -9 -6 1 -5 13 -53 17 -53 5 1 -20 29 -43 44 -37 13
5 16 -2 18 -37 4 -108 7 -120 18 -94 5 11 9 38 9 61 1 26 6 41 14 41 10 0 11
-13 6 -51 -7 -51 4 -92 22 -81 5 4 9 33 9 66 0 64 8 74 27 33 9 -20 9 -30 0
-45 -9 -15 -9 -23 1 -37 7 -9 15 -25 18 -34 4 -10 13 -18 20 -18 8 0 14 -9 14
-20 0 -11 6 -20 14 -20 8 0 17 -8 20 -18 3 -9 24 -25 46 -35 31 -13 40 -22 40
-42 0 -28 -20 -35 -20 -7 -1 15 -2 15 -15 -2 -20 -26 -19 -36 3 -36 14 0 15
-2 2 -10 -9 -6 -10 -10 -3 -10 6 0 14 4 17 9 12 18 76 -7 76 -29 0 -10 8 -21
18 -23 9 -2 5 -3 -10 -1 -16 2 -28 0 -28 -5 0 -4 35 -9 77 -10 95 -3 109 -11
22 -12 -54 -1 -59 -3 -29 -9 33 -7 32 -8 -20 -11 -159 -9 522 -15 1825 -15
1275 -1 1722 4 1545 15 -42 3 -43 4 -15 11 17 4 22 8 12 9 -10 0 -15 5 -12 11
3 5 -1 10 -9 10 -9 0 -16 5 -16 12 0 6 -8 20 -17 31 -13 15 -14 18 -3 12 12
-7 13 -6 4 6 -6 8 -17 35 -25 62 -7 26 -19 47 -25 47 -6 0 -18 26 -25 58 -9
38 -19 57 -29 57 -10 0 -16 12 -18 31 -2 18 -12 40 -23 50 -12 11 -19 30 -19
55 0 46 -8 69 -25 69 -7 0 -16 17 -20 37 -4 21 -10 40 -14 43 -19 13 -81 123
-81 145 0 15 -7 26 -20 30 -21 7 -28 25 -10 25 20 0 9 20 -14 26 -15 3 -23 11
-20 19 3 8 -6 21 -20 30 -14 10 -26 26 -26 36 0 12 -10 23 -25 29 -29 11 -32
28 -7 46 16 12 15 13 -5 14 -15 0 -23 6 -23 18 0 9 -9 23 -21 30 -13 8 -18 19
-14 31 6 20 -18 46 -44 46 -8 0 -17 8 -19 17 -2 13 3 18 20 19 14 1 5 6 -22
12 -64 16 -103 56 -68 70 7 3 2 6 -12 6 -27 1 -100 46 -100 61 0 6 -7 10 -15
10 -11 0 -15 11 -15 40 0 29 -4 40 -15 40 -9 0 -15 -9 -15 -25 0 -23 -2 -24
-25 -13 -14 6 -25 15 -25 20 0 5 -11 6 -25 2 -15 -4 -25 -2 -25 5 0 6 -7 11
-15 11 -8 0 -15 -7 -15 -15 0 -30 -27 -14 -43 25 -12 32 -21 40 -40 40 -14 0
-27 7 -31 15 -3 8 -15 15 -26 15 -11 0 -20 7 -20 15 0 8 -9 15 -20 15 -12 0
-25 10 -32 25 -6 14 -15 25 -20 25 -4 0 -8 11 -8 25 0 17 -5 25 -18 25 -10 0
-26 10 -36 21 -15 18 -16 26 -7 46 15 33 14 43 -6 43 -14 0 -13 3 5 20 12 12
22 32 22 45 0 14 9 30 20 37 22 14 27 44 8 50 -7 3 -9 11 -3 24 7 17 8 17 12
2 3 -10 13 -18 24 -18 19 0 20 6 18 90 -1 68 2 95 15 114 20 31 20 36 0 36 -9
0 -14 7 -12 18 2 9 11 16 21 16 9 -1 17 3 18 10 0 6 3 41 8 78 7 68 3 80 -18
54 -9 -11 -9 -15 1 -19 7 -2 10 -8 6 -12 -4 -4 -15 -1 -26 6 -15 11 -17 19
-10 38 7 20 13 23 43 18 39 -6 45 2 15 23 -27 19 -27 66 0 73 16 4 20 14 20
50 0 25 -5 47 -11 49 -8 3 -6 14 6 37 13 27 14 35 4 42 -9 5 -5 11 14 20 25
11 37 42 19 52 -4 2 0 2 8 -1 36 -10 45 -7 42 16 -3 17 2 25 17 29 12 3 21 14
21 24 0 11 4 19 8 19 8 0 32 48 46 93 3 9 14 17 24 17 26 0 72 37 73 58 0 11
2 12 6 5 7 -19 19 -16 47 12 14 14 31 25 39 25 8 0 31 16 51 35 20 19 52 37
71 41 20 3 35 12 35 20 0 10 14 14 49 14 34 0 51 5 55 15 3 9 19 15 43 14 234
-1 237 0 288 25 37 17 80 27 160 34 62 6 123 17 140 26 17 9 38 16 48 16 9 0
17 7 17 15 0 9 9 15 21 15 11 0 34 9 49 20 16 11 42 23 59 26 17 4 31 12 31
18 1 12 63 46 85 46 8 0 17 11 21 25 7 27 29 34 37 11 6 -15 47 -11 47 5 0 5
11 9 25 9 24 0 30 12 26 48 -1 6 7 12 18 12 11 0 29 10 41 22 20 22 20 27 20
1370 l0 1348 -3000 0 -3000 0 0 -1675z m3329 1340 c128 -34 254 -130 313 -241
106 -196 65 -441 -98 -594 -78 -73 -164 -115 -268 -130 -64 -10 -83 -17 -102
-38 -18 -21 -23 -23 -24 -10 0 9 5 20 11 24 18 11 -3 22 -59 29 -39 5 -52 4
-50 -5 2 -7 -3 -15 -9 -17 -8 -3 -13 4 -13 15 0 14 -18 30 -57 52 -243 137
-330 420 -205 669 54 108 184 211 312 247 62 17 184 17 249 -1z m-1552 -413
c72 -37 123 -117 123 -193 0 -21 5 -41 10 -44 6 -4 8 -11 5 -16 -4 -5 5 -5 20
1 15 6 35 10 47 10 19 0 19 -1 -4 -28 -12 -15 -32 -47 -42 -70 -20 -44 -33
-51 -56 -29 -9 8 -9 4 2 -14 20 -32 9 -60 -16 -40 -23 19 -21 -4 4 -39 28 -40
66 -61 124 -71 l51 -8 -57 4 c-72 5 -110 30 -139 93 l-22 48 -51 -26 c-142
-70 -314 7 -347 156 -20 87 0 155 65 219 28 28 67 56 86 63 50 16 148 8 197
-16z m-55 -570 c171 -75 223 -299 102 -440 -53 -62 -132 -97 -219 -96 -83 1
-130 19 -190 75 -107 98 -120 271 -29 378 90 104 217 136 336 83z m1637 -146
c34 -24 69 -81 57 -93 -2 -3 -7 6 -11 19 -24 79 -130 120 -211 82 -47 -22 -38
-27 15 -8 46 15 67 11 40 -9 -8 -7 -24 -28 -35 -47 -10 -19 -22 -37 -25 -40
-3 -3 -8 -13 -12 -22 -3 -10 -12 -15 -20 -12 -11 4 -13 -1 -9 -22 4 -20 1 -25
-9 -22 -10 3 -14 21 -14 56 1 29 0 52 -2 52 -1 0 -7 -15 -12 -32 -7 -26 -9
-28 -10 -10 -2 45 46 109 99 131 42 18 115 7 159 -23z m-819 -104 c0 -4 -4
-12 -8 -17 -5 -6 -19 -26 -30 -46 l-22 -36 44 8 c58 11 86 7 130 -19 49 -29
76 -76 76 -135 0 -45 -25 -115 -37 -103 -3 3 -15 -1 -27 -9 -11 -8 -24 -15
-28 -15 -10 0 27 65 52 92 18 19 20 20 20 4 0 -9 -5 -27 -11 -39 -10 -22 -10
-22 6 -2 12 15 16 35 13 78 -4 49 -9 62 -38 92 -40 41 -46 42 -78 13 l-24 -23
4 30 c3 29 2 30 -32 27 -19 -2 -39 -8 -44 -12 -5 -6 6 -7 28 -3 l36 6 -35 -53
c-19 -28 -35 -58 -35 -65 0 -8 -9 -17 -20 -20 -15 -5 -19 -12 -14 -31 4 -17 2
-24 -8 -24 -20 0 -38 21 -39 45 0 11 -3 14 -6 7 -7 -17 15 -71 41 -100 51 -58
138 -69 200 -27 20 13 36 21 36 17 0 -20 -80 -52 -127 -52 -61 0 -108 28 -140
85 -35 62 -26 128 26 194 13 18 16 29 9 40 -14 23 6 67 39 84 33 18 43 20 43
9z m1454 -177 c115 -55 168 -199 115 -315 -27 -60 -54 -88 -114 -116 -91 -43
-219 -22 -282 47 -90 98 -82 253 18 343 73 66 177 82 263 41z m-902 -465 c127
-39 237 -132 298 -253 77 -153 64 -355 -32 -496 -89 -131 -254 -220 -407 -221
-22 0 -44 -8 -59 -22 l-25 -23 5 27 c5 24 2 27 -40 33 -57 9 -77 -8 -43 -36
13 -10 19 -19 13 -19 -13 0 -52 49 -52 65 0 7 -30 30 -66 51 -83 49 -145 116
-189 208 -34 71 -34 71 -93 88 -74 22 -151 90 -183 163 -33 74 -31 172 3 247
69 149 226 213 389 158 l61 -21 45 22 c109 53 261 64 375 29z m-424 -989 c48
-25 96 -77 116 -125 21 -50 21 -148 0 -187 -17 -34 -21 -33 44 -14 23 7 23 7
-4 -37 -16 -23 -29 -45 -31 -47 -1 -2 -9 2 -17 8 -8 7 -20 10 -27 6 -8 -5 -7
0 1 16 10 18 3 15 -26 -13 -46 -44 -134 -71 -198 -61 -126 19 -205 112 -206
242 0 107 57 188 160 225 55 20 135 14 188 -13z m855 -35 c93 -41 142 -124
135 -230 l-4 -65 41 -10 c59 -16 98 -43 132 -95 109 -165 -5 -380 -201 -379
-33 0 -77 7 -96 15 -45 19 -103 74 -125 117 -21 42 -31 130 -17 168 9 29 9 29
-42 47 -94 33 -156 122 -156 224 0 49 12 84 47 134 20 30 30 37 48 32 13 -3
36 1 51 9 33 16 89 29 96 21 3 -2 -9 -20 -26 -38 -42 -45 -56 -64 -56 -73 -1
-23 -25 -71 -31 -62 -4 7 -9 4 -14 -10 -3 -11 -11 -21 -16 -21 -6 0 -8 4 -5 8
2 4 -4 8 -15 8 -24 0 -24 -1 2 -37 11 -16 16 -29 10 -29 -5 0 -11 -7 -13 -16
-2 -13 -7 -12 -27 7 -21 20 -23 27 -17 81 4 33 9 67 12 76 2 9 -4 -1 -15 -22
-20 -42 -21 -148 -1 -154 5 -2 10 -8 10 -14 0 -24 57 -80 107 -105 l56 -27 21
30 c31 42 66 73 109 95 48 25 97 76 99 103 0 12 4 -1 8 -29 l7 -50 1 68 c2 77
-20 133 -69 178 -57 51 -168 64 -241 29 -23 -11 -44 -18 -46 -15 -9 9 6 17 60
36 71 25 117 23 181 -5z m-359 -1000 c59 -35 92 -76 113 -142 34 -107 -13
-220 -117 -278 -158 -89 -360 23 -360 200 0 117 67 208 180 245 46 15 137 3
184 -25z m1506 -1065 c0 -66 -4 -122 -9 -125 -5 -4 -11 -1 -13 5 -2 7 -12 7
-31 -2 -23 -10 -33 -10 -62 4 -79 38 -53 157 35 157 20 0 42 -6 49 -12 10 -11
12 -4 11 32 -2 58 -2 60 10 60 6 0 10 -46 10 -119z m-1580 64 c0 -42 2 -45 19
-35 54 28 121 -12 121 -73 0 -68 -30 -85 -132 -77 l-28 3 0 113 c0 69 4 114
10 114 6 0 10 -20 10 -45z m-1152 -27 l3 -58 -221 0 c-145 0 -219 -3 -215 -10
3 -5 2 -10 -3 -10 -6 0 -13 7 -16 16 -8 22 -8 109 1 118 4 4 106 6 228 4 l220
-3 3 -57z m-454 -85 c11 -11 1 -10 220 -12 l194 -1 4 -45 3 -45 -194 0 c-188
0 -194 -1 -213 -22 -19 -23 -20 -23 -34 -4 -16 23 -18 36 -4 36 6 0 10 -4 10
-10 0 -5 3 -10 8 -10 11 0 2 93 -10 105 -8 7 -9 6 -4 -2 4 -7 2 -13 -4 -13 -6
0 -9 12 -6 28 2 15 5 45 7 67 2 39 2 38 8 -12 4 -28 10 -55 15 -60z m1903 75
c33 -12 33 -12 33 -79 0 -63 -1 -67 -22 -67 -13 0 -35 -4 -50 -7 -22 -6 -33
-1 -58 23 -33 34 -37 59 -15 102 22 42 52 49 112 28z m468 2 c3 -5 15 -10 26
-10 17 0 19 -7 19 -67 0 -38 -6 -75 -13 -84 -16 -20 -51 -39 -74 -39 -24 0
-65 29 -58 41 4 5 15 3 28 -6 28 -20 51 -19 68 2 13 15 11 16 -14 9 -52 -13
-96 27 -97 86 0 28 6 41 26 57 28 22 78 28 89 11z m290 -15 c44 -44 27 -125
-30 -139 -34 -9 -91 19 -99 47 -11 43 -6 68 20 92 35 32 78 32 109 0z m-970
-225 c4 -6 -7 -10 -24 -10 -38 0 -39 -10 -4 -30 27 -15 28 -15 43 15 20 39 61
46 84 13 l16 -22 0 21 c0 21 4 22 68 20 l67 -2 6 -40 c3 -22 7 -30 8 -17 2 38
20 62 46 62 23 0 45 -24 45 -49 0 -6 -16 -11 -35 -11 -19 0 -35 -4 -35 -9 0
-16 27 -31 44 -25 9 3 16 1 16 -5 0 -15 -53 -14 -68 1 -9 9 -12 9 -12 0 0 -7
-4 -12 -10 -12 -5 0 -10 15 -10 33 0 41 -13 62 -34 54 -11 -4 -16 -19 -16 -47
0 -25 -4 -39 -10 -35 -5 3 -10 24 -10 46 0 32 -3 39 -20 39 -17 0 -20 -7 -20
-45 0 -25 -4 -45 -10 -45 -5 0 -10 10 -10 22 l0 22 -16 -22 c-18 -26 -69 -30
-78 -7 -7 18 -27 20 -23 3 3 -17 -52 -23 -67 -8 -8 9 -6 11 9 10 53 -6 59 7
15 32 -31 18 -39 43 -17 51 21 9 56 7 62 -3z"/>
<path d="M3102 5904 c-26 -6 -60 -17 -77 -23 -43 -18 -135 -81 -142 -97 -3 -8
-9 -11 -14 -8 -5 3 -6 -3 -2 -12 4 -12 3 -15 -5 -10 -7 4 -12 2 -12 -3 0 -16
20 -13 26 3 6 16 27 27 60 31 11 2 54 17 94 35 46 20 96 34 134 37 l61 4 -29
-25 c-17 -14 -33 -23 -36 -21 -8 5 -80 -70 -106 -110 -10 -16 -24 -34 -31 -38
-7 -4 -13 -17 -13 -27 0 -11 -4 -20 -9 -20 -5 0 -13 -10 -17 -22 -4 -13 -14
-28 -23 -35 -9 -6 -13 -14 -9 -18 4 -4 -6 -25 -22 -47 -17 -22 -27 -47 -23
-56 3 -9 -20 9 -52 40 -52 54 -56 60 -49 90 4 18 6 47 5 64 -1 19 7 42 20 58
17 21 19 30 10 39 -9 9 -11 8 -5 -7 5 -12 4 -17 -3 -13 -13 8 -62 -81 -79
-147 -53 -198 50 -440 221 -522 49 -23 54 -23 88 -9 21 8 38 11 42 6 3 -5 1
-12 -5 -16 -21 -13 -10 -35 18 -35 15 0 33 -5 40 -12 8 -8 12 -8 12 -1 0 6 -7
13 -15 17 -24 9 -18 30 15 54 28 21 42 18 20 -4 -11 -11 1 -57 17 -67 5 -3 42
0 84 8 154 26 278 120 343 258 111 234 11 516 -224 630 -95 46 -200 57 -308
31z m356 -128 c105 -55 117 -184 13 -145 -14 6 -38 22 -53 36 -76 73 -47 154
40 109z m169 -406 c-14 -128 -107 -251 -216 -285 -23 -7 -22 -5 8 26 17 19 34
45 37 59 11 44 50 104 97 146 24 22 50 57 58 77 7 20 15 37 17 37 3 0 2 -27
-1 -60z"/>
<path d="M1605 5519 c-22 -5 -56 -23 -75 -40 -19 -17 -26 -26 -15 -21 63 30
98 42 120 42 14 0 25 -2 25 -5 0 -5 -33 -45 -58 -71 -7 -8 -10 -14 -5 -14 4 0
3 -4 -2 -8 -16 -12 -65 -87 -65 -100 0 -18 -36 3 -55 31 -11 17 -12 31 -6 55
13 42 4 41 -15 -3 -18 -45 -18 -126 2 -173 46 -112 181 -169 289 -122 51 22
85 46 85 61 0 5 -16 -1 -35 -12 -19 -12 -35 -18 -35 -15 0 14 42 88 59 105 9
9 25 28 34 41 l17 24 0 -22 c0 -13 4 -20 10 -17 13 8 13 70 0 117 -15 52 -85
121 -145 141 -53 19 -71 19 -130 6z"/>
<path d="M1508 4929 c-70 -32 -64 -54 7 -25 30 13 73 20 100 17 5 -1 -7 -18
-27 -38 -32 -33 -82 -124 -75 -138 1 -3 -8 -12 -20 -20 -14 -9 -23 -27 -23
-41 0 -24 -1 -24 -29 -9 -36 18 -73 68 -65 88 3 8 1 18 -4 21 -19 12 -34 -93
-22 -151 35 -164 214 -259 361 -190 102 47 149 114 157 217 11 162 -89 276
-252 287 -47 3 -72 -1 -108 -18z"/>
<path d="M3794 4501 c-23 -10 -45 -24 -48 -30 -10 -15 -5 -14 54 9 28 11 63
20 78 20 l27 0 -37 -34 c-20 -19 -35 -36 -32 -39 2 -2 -2 -10 -11 -17 -8 -7
-15 -19 -15 -27 0 -7 -7 -16 -15 -19 -8 -4 -15 -12 -15 -20 0 -8 -4 -14 -10
-14 -5 0 -10 -7 -10 -15 0 -8 -6 -15 -13 -15 -21 0 -57 44 -57 71 -1 22 -2 22
-11 6 -6 -11 -9 -51 -7 -92 4 -95 37 -147 117 -187 96 -49 201 -30 270 48 131
149 30 375 -166 374 -35 0 -74 -8 -99 -19z"/>
<path d="M2807 4015 c-85 -29 -104 -43 -84 -62 12 -12 20 -11 53 6 42 22 179
49 190 38 4 -4 -10 -24 -31 -44 -21 -21 -57 -68 -81 -106 -38 -58 -45 -77 -48
-131 -3 -45 -13 -81 -35 -124 -28 -55 -29 -62 -15 -76 18 -18 11 -21 -15 -6
-15 7 -28 2 -63 -25 -39 -30 -44 -39 -43 -70 l2 -34 -28 16 c-16 10 -29 21
-29 25 0 4 -16 8 -35 8 -19 0 -35 -5 -35 -10 0 -10 20 -50 30 -60 3 -3 18 -25
34 -50 31 -48 67 -83 128 -126 l37 -26 31 26 c44 37 89 35 130 -5 17 -18 29
-37 26 -44 -7 -18 42 -26 95 -14 116 26 185 64 265 147 43 44 112 168 100 179
-3 4 -1 12 5 19 15 18 15 182 -1 229 -68 214 -219 332 -435 340 -64 3 -94 -1
-148 -20z m391 -89 c50 -27 90 -71 100 -109 23 -82 -21 -103 -121 -56 -33 15
-87 93 -87 125 0 17 -4 22 -15 18 -19 -8 -21 32 -2 40 19 9 95 -2 125 -18z
m177 -397 c-5 -87 -17 -125 -60 -189 -46 -68 -86 -99 -168 -133 -74 -29 -102
-30 -46 -1 41 21 66 51 73 88 9 42 72 141 109 170 58 47 67 59 73 98 11 64 23
42 19 -33z"/>
<path d="M2405 4000 c-27 -10 -51 -23 -53 -29 -5 -15 14 -14 47 4 31 16 111
31 111 21 0 -3 -16 -27 -37 -53 -43 -57 -89 -150 -92 -188 0 -8 -8 -15 -16
-15 -8 0 -15 -7 -15 -15 0 -22 -11 -19 -55 17 -40 32 -34 19 14 -34 20 -22 22
-30 12 -42 -7 -8 -10 -20 -6 -26 11 -17 -21 -11 -47 10 -32 25 -41 69 -26 125
7 24 9 48 4 52 -15 15 -26 -24 -25 -90 2 -81 38 -168 90 -211 34 -29 104 -65
126 -66 8 0 11 31 11 103 -1 125 23 208 82 287 22 30 46 67 52 82 7 15 22 29
35 33 37 9 27 23 -29 40 -66 19 -120 18 -183 -5z"/>
<path d="M2488 3054 c-26 -8 -50 -19 -53 -24 -8 -13 -4 -13 38 5 38 16 97 20
97 8 0 -5 -12 -19 -27 -33 -14 -14 -37 -50 -50 -80 -50 -114 -50 -113 -93 -83
l-25 17 17 -24 c34 -47 39 -60 28 -60 -6 0 -9 -4 -5 -9 14 -24 -16 -18 -44 8
-36 34 -40 22 -10 -33 45 -85 126 -131 218 -123 30 2 57 9 59 15 2 7 11 12 21
12 23 0 76 50 95 91 9 19 11 26 4 15 -35 -50 -53 -68 -90 -87 -46 -23 -61 -20
-23 5 14 9 25 22 25 30 0 13 54 100 77 124 7 7 13 19 14 25 0 7 5 3 10 -8 7
-15 8 -8 6 26 -3 28 -15 64 -32 90 -15 24 -24 35 -20 24 15 -39 11 -60 -11
-63 -32 -5 -84 44 -84 79 0 32 16 37 52 18 11 -6 18 -7 14 -1 -11 18 -80 45
-121 48 -22 1 -61 -4 -87 -12z"/>
<path d="M3611 2649 c-31 -32 -81 -144 -81 -180 0 -15 -5 -19 -15 -15 -8 3
-23 9 -32 13 -10 4 -5 -4 10 -18 20 -16 26 -29 22 -42 -9 -22 -43 -22 -68 1
-19 17 -19 16 -3 -23 22 -52 39 -70 94 -96 38 -17 57 -20 105 -15 32 3 66 10
75 16 13 8 10 9 -13 4 l-30 -5 23 20 c12 11 29 36 37 55 9 20 30 53 49 74 18
20 35 43 38 51 5 18 -27 51 -74 75 -39 19 -74 76 -64 102 10 27 -43 15 -73
-17z"/>
<path d="M2993 2027 c-17 -7 -35 -15 -39 -20 -4 -4 11 -1 34 7 64 23 79 12 42
-30 -37 -42 -53 -73 -76 -146 l-17 -57 -36 21 c-33 20 -35 21 -21 3 8 -11 21
-26 27 -33 10 -10 10 -17 0 -32 -14 -24 -18 -24 -43 -5 -32 24 -34 17 -7 -31
41 -73 137 -122 215 -110 50 8 107 37 133 67 l20 24 -20 -17 c-12 -10 -39 -25
-60 -34 l-40 -16 21 23 c11 13 25 36 32 51 6 15 27 45 47 66 19 22 35 46 35
55 0 9 5 19 10 22 18 11 11 23 -11 18 -15 -4 -22 0 -26 16 -3 12 -13 21 -25
21 -28 0 -78 54 -78 84 0 20 5 26 23 26 20 1 21 1 3 11 -10 6 -32 13 -50 14
-17 2 -38 6 -46 8 -8 3 -29 0 -47 -6z"/>
<path d="M1825 10 c8 -13 3444 -13 3465 0 10 6 -591 10 -1728 10 -1134 0
-1741 -3 -1737 -10z"/>
</g>
</svg>
